<?xml version="1.0" encoding="iso-8859-1"?>
<!-- Generator: Adobe Illustrator 19.0.0, SVG Export Plug-In . SVG Version: 6.00 Build 0)  -->
<svg version="1.1" id="Capa_1" xmlns="http://www.w3.org/2000/svg" xmlns:xlink="http://www.w3.org/1999/xlink" x="0px" y="0px"
	 viewBox="0 0 511 511" style="enable-background:new 0 0 511 511;" xml:space="preserve">
<g>
	<path d="M75.5,80c-20.479,0-38.826,11.623-51.663,32.728C10.86,134.064,4,164.07,4,199.5c0,25.652,13.894,49.464,36.26,62.144
		C47.501,265.75,52,273.75,52,282.524v38.385c-13.759,3.374-24,15.806-24,30.591v112c0,26.191,21.309,47.5,47.5,47.5
		s47.5-21.309,47.5-47.5v-112c0-14.785-10.241-27.216-24-30.591v-38.385c0-8.774,4.499-16.775,11.74-20.88
		C133.106,248.964,147,225.152,147,199.5c0-35.43-6.86-65.436-19.837-86.772C114.326,91.623,95.979,80,75.5,80z M108,351.5v112
		c0,17.92-14.58,32.5-32.5,32.5S43,481.42,43,463.5v-112c0-9.098,7.402-16.5,16.5-16.5h32C100.598,335,108,342.402,108,351.5z
		 M103.343,248.595C91.412,255.359,84,268.36,84,282.524V320H67v-37.476c0-14.165-7.412-27.166-19.343-33.929
		C29.981,238.574,19,219.762,19,199.5c0-32.68,6.104-59.99,17.653-78.978C46.809,103.826,60.242,95,75.5,95
		s28.691,8.826,38.847,25.522C125.896,139.51,132,166.82,132,199.5C132,219.762,121.019,238.574,103.343,248.595z"/>
	<path d="M83.5,352c-4.142,0-7.5,3.358-7.5,7.5v8c0,4.142,3.358,7.5,7.5,7.5s7.5-3.358,7.5-7.5v-8C91,355.358,87.642,352,83.5,352z"
		/>
	<path d="M83.5,392c-4.142,0-7.5,3.358-7.5,7.5v40c0,4.142,3.358,7.5,7.5,7.5s7.5-3.358,7.5-7.5v-40C91,395.358,87.642,392,83.5,392
		z"/>
	<path d="M490.428,96.898l-18.102-21.722C478.746,70.977,483,63.728,483,55.5v-32C483,10.542,472.458,0,459.5,0h-240
		C206.542,0,196,10.542,196,23.5v32c0,8.228,4.254,15.477,10.674,19.676l-18.102,21.722C177.886,109.722,172,125.978,172,142.671
		V455.5c0,30.603,24.897,55.5,55.5,55.5h224c30.603,0,55.5-24.897,55.5-55.5V142.671C507,125.978,501.114,109.722,490.428,96.898z
		 M211,23.5c0-4.687,3.813-8.5,8.5-8.5h240c4.687,0,8.5,3.813,8.5,8.5v32c0,4.687-3.813,8.5-8.5,8.5h-0.029
		c-0.007,0-0.014,0-0.021,0H219.5c-4.687,0-8.5-3.813-8.5-8.5V23.5z M187,191h192.5c4.687,0,8.5,3.813,8.5,8.5v176
		c0,4.687-3.813,8.5-8.5,8.5H187V191z M492,455.5c0,22.332-18.168,40.5-40.5,40.5h-224c-22.332,0-40.5-18.168-40.5-40.5V399h192.5
		c12.958,0,23.5-10.542,23.5-23.5v-176c0-12.958-10.542-23.5-23.5-23.5H187v-33.329c0-13.191,4.651-26.037,13.096-36.171L223.013,79
		h232.974l22.917,27.5C487.349,116.634,492,129.48,492,142.671V455.5z"/>
	<path d="M435.5,47h8c4.142,0,7.5-3.358,7.5-7.5s-3.358-7.5-7.5-7.5h-8c-4.142,0-7.5,3.358-7.5,7.5S431.358,47,435.5,47z"/>
	<path d="M331.5,47h72c4.142,0,7.5-3.358,7.5-7.5s-3.358-7.5-7.5-7.5h-72c-4.142,0-7.5,3.358-7.5,7.5S327.358,47,331.5,47z"/>
	<path d="M467.5,168.002c-4.142,0-7.5,3.358-7.5,7.5V335.5c0,4.142,3.358,7.5,7.5,7.5s7.5-3.358,7.5-7.5V175.502
		C475,171.36,471.642,168.002,467.5,168.002z"/>
	<path d="M455.282,116.423c-3.182,2.651-3.612,7.381-0.96,10.563c3.662,4.395,5.679,9.965,5.679,15.685c0,4.142,3.358,7.5,7.5,7.5
		s7.5-3.358,7.5-7.5c0-9.222-3.251-18.202-9.155-25.287C463.192,114.201,458.463,113.771,455.282,116.423z"/>
	<path d="M267,287.5v-8c0-4.142-3.358-7.5-7.5-7.5s-7.5,3.358-7.5,7.5v8c0,4.142,3.358,7.5,7.5,7.5S267,291.642,267,287.5z"/>
	<path d="M307.5,272c-4.142,0-7.5,3.358-7.5,7.5v8c0,4.142,3.358,7.5,7.5,7.5s7.5-3.358,7.5-7.5v-8
		C315,275.358,311.642,272,307.5,272z"/>
	<path d="M293.143,307.078c-1.421,1.43-4.955,2.873-9.643,2.873s-8.222-1.443-9.643-2.873c-2.92-2.938-7.669-2.951-10.606-0.031
		c-2.938,2.92-2.952,7.669-0.031,10.606c4.543,4.569,12.125,7.297,20.281,7.297s15.738-2.728,20.281-7.297
		c2.92-2.937,2.906-7.686-0.031-10.606C300.813,304.127,296.064,304.14,293.143,307.078z"/>
	<path d="M342.542,264.196c-9.47-23.927-32.978-40.194-59.037-40.196c-0.001,0-0.001,0-0.002,0s-0.001,0-0.002,0H283.5
		c-0.001,0-0.002,0-0.003,0c-0.044,0-0.089,0-0.133,0.001c-0.009,0-0.018,0.001-0.027,0.002
		c-25.995,0.068-49.428,16.315-58.879,40.193C212.932,265.692,204,275.573,204,287.5s8.932,21.808,20.458,23.304
		C233.929,334.732,257.44,351,283.5,351s49.571-16.268,59.042-40.196C354.068,309.308,363,299.427,363,287.5
		S354.068,265.692,342.542,264.196z M339.5,296c-0.164,0-0.64-0.069-0.987-0.12l-0.232-0.034c-3.693-0.535-7.218,1.731-8.268,5.313
		C323.998,321.673,304.871,336,283.5,336s-40.498-14.327-46.513-34.841c-0.947-3.231-3.908-5.39-7.191-5.39
		c-0.356,0-0.716,0.025-1.077,0.078l-0.232,0.034c-0.348,0.051-0.824,0.12-0.987,0.12c-4.687,0-8.5-3.813-8.5-8.5s3.813-8.5,8.5-8.5
		c0.164,0,0.64,0.069,0.987,0.12l0.232,0.034c3.696,0.535,7.218-1.731,8.269-5.313c4.114-14.031,14.363-25.164,27.268-30.802
		c-0.138,8.392,5.199,17.48,17.875,19.835c0.463,0.086,0.924,0.127,1.378,0.127c3.544,0,6.695-2.522,7.366-6.132
		c0.756-4.073-1.932-7.987-6.004-8.744c-2.222-0.413-5.905-1.625-5.615-5.115c0.12-1.455,1.171-3.925,4.333-4.009
		c21.336,0.039,40.419,14.353,46.425,34.839c1.05,3.582,4.578,5.845,8.269,5.313l0.232-0.034c0.348-0.051,0.824-0.12,0.987-0.12
		c4.687,0,8.5,3.813,8.5,8.5S344.187,296,339.5,296z"/>
</g>
<g>
</g>
<g>
</g>
<g>
</g>
<g>
</g>
<g>
</g>
<g>
</g>
<g>
</g>
<g>
</g>
<g>
</g>
<g>
</g>
<g>
</g>
<g>
</g>
<g>
</g>
<g>
</g>
<g>
</g>
</svg>
